<svg xmlns="http://www.w3.org/2000/svg" xmlns:xlink="http://www.w3.org/1999/xlink" viewBox="0 0 357.55 826.44"><defs><style>.cls-1{fill:#202b33;}.cls-2{fill:url(#Degradado_sin_nombre_169);}.cls-3{fill:url(#Degradado_sin_nombre_162);}</style><linearGradient id="Degradado_sin_nombre_169" x1="35.96" y1="193.34" x2="357.55" y2="193.34" gradientUnits="userSpaceOnUse"><stop offset="0.74" stop-color="#788689"/><stop offset="0.8" stop-color="#7d8b8e"/><stop offset="0.87" stop-color="#8b999d"/><stop offset="0.94" stop-color="#a2b1b4"/><stop offset="1" stop-color="#b9c8cc"/></linearGradient><linearGradient id="Degradado_sin_nombre_162" x1="35.96" y1="193.34" x2="313.13" y2="193.34" gradientUnits="userSpaceOnUse"><stop offset="0" stop-color="#272f34"/><stop offset="0.19" stop-color="#2c3439"/><stop offset="0.42" stop-color="#394347"/><stop offset="0.67" stop-color="#505b5f"/><stop offset="0.93" stop-color="#6f7c7f"/><stop offset="1" stop-color="#788689"/></linearGradient></defs><title>Recurso 224@4x</title><g id="Capa_2" data-name="Capa 2"><g id="Weapons"><g id="Axe_A" data-name="Axe A"><path class="cls-1" d="M72.13,788.68,42.8,824.58a5.36,5.36,0,0,1-8.06.06L1.36,787.1a5.37,5.37,0,0,1-1.16-5s30.9-28.85,32.27-40.46C51.62,579.47,60.25,110.09,60.25,110.09L48.77,32.17A5.38,5.38,0,0,1,54.09,26h47.58A5.38,5.38,0,0,1,107,32.13l-10.69,76.4s.65,483-19.55,633.9c-1.27,9.52-3.58,41.09-3.58,41.09A5.38,5.38,0,0,1,72.13,788.68Z"/><path class="cls-2" d="M44.72,55.68h69.74l3.76,15s95.15,46.66,118.13-13.36L257.18,3a4.62,4.62,0,0,1,7.3-1.88c21.39,18.13,103.43,95.12,92,201-.95,8.78-20.5,18.72-30,23.22,11.26,12.25,15.41,21,15.64,32.31-48.56,118.26-144.86,129-144.86,129l-18.42-92.37a7.19,7.19,0,0,1,5.13-9.67c10.48-2.26,45.22,11.05,60.18-21.3,37-80-35.34-110.66-62.67-122.66C137.46,120,112,140,112,140l-7.5,16.5-53-.5L36.58,140.56l-.62-71Z"/><path class="cls-3" d="M44.72,55.68h69.74l3.76,15s95.15,46.66,118.13-13.36L257.18,3a4.62,4.62,0,0,1,7.3-1.88c21.39,18.13,57.93,95.12,46.48,201-.95,8.78-20.5,18.72-30,23.22,11.26,12.25,15.41,21,15.64,32.31-48.56,118.26-99.36,129-99.36,129l-18.42-92.37a7.19,7.19,0,0,1,5.13-9.67c10.48-2.26,45.22,11.05,60.18-21.3,37-80-35.34-110.66-62.67-122.66C137.46,120,112,140,112,140l-7.5,16.5-53-.5L36.58,140.56l-.62-71Z"/></g></g></g></svg>