<svg xmlns="http://www.w3.org/2000/svg" xmlns:xlink="http://www.w3.org/1999/xlink" viewBox="0 0 192.59 512.87"><defs><style>.cls-1{fill:url(#Degradado_sin_nombre_169);}.cls-2{fill:url(#Degradado_sin_nombre_162);}.cls-3{fill:#202b33;}</style><linearGradient id="Degradado_sin_nombre_169" x1="213.96" y1="95.07" x2="213.96" y2="439.52" gradientTransform="translate(-127.29 -87.55) rotate(-2.33)" gradientUnits="userSpaceOnUse"><stop offset="0.74" stop-color="#788689"/><stop offset="0.8" stop-color="#7d8b8e"/><stop offset="0.87" stop-color="#8b999d"/><stop offset="0.94" stop-color="#a2b1b4"/><stop offset="1" stop-color="#b9c8cc"/></linearGradient><linearGradient id="Degradado_sin_nombre_162" x1="152.44" y1="269.2" x2="241.12" y2="269.2" gradientTransform="translate(-127.29 -87.55) rotate(-2.33)" gradientUnits="userSpaceOnUse"><stop offset="0" stop-color="#272f34"/><stop offset="0.19" stop-color="#2c3439"/><stop offset="0.42" stop-color="#394347"/><stop offset="0.67" stop-color="#505b5f"/><stop offset="0.93" stop-color="#6f7c7f"/><stop offset="1" stop-color="#788689"/></linearGradient></defs><title>Recurso 228@4x</title><g id="Capa_2" data-name="Capa 2"><g id="Weapons"><g id="Dagger_A" data-name="Dagger A"><path class="cls-1" d="M137.38,341.58s6.53-9.72,15.56-124.07c.45-5.62-10.48-12.36-18.24-17.3,6.78-8.3,19.11-13.46,18.73-20.27A241.91,241.91,0,0,0,128.8,85.3c-3.15-6.36-6.2-8.2-20.37-7.62,3.55-16.83,3.72-21.1.27-26-18-25.32-36.82-42-47-51-2.26-2-5.4.75-4.11,3.59C69.44,30.42,95.27,100.63,91.82,210,89.42,286.15,48.45,338.2,48.45,338.2Z"/><path class="cls-2" d="M108.29,345.17s7-10.84,16-125.18c.44-5.62-10.33-14.38-18.09-19.32,6.79-8.3,19-14.73,18.66-21.54-2.1-37.55-2.67-58.44-15.38-84.13-3.15-6.36-9.35-10.93-23.52-10.36,3.55-16.83,3.44-27.84,0-32.7C68,26.62,70.46,11.57,60.29,2.57c-2.26-2-4-1.14-2.7,1.7,11.85,26.15,29.61,96,26.16,205.34-2.4,76.16-41.2,127.9-41.2,127.9Z"/><path class="cls-3" d="M72.4,455.65l49.86-100.94a6.63,6.63,0,0,0-5.25-9.53L95.73,343l-31.94-5a8.13,8.13,0,0,0-9.37,7.59L48.63,449.85A6.38,6.38,0,0,1,45.52,455L22.89,468.5a6.4,6.4,0,0,0-2.34,8.57l17.74,32.47a6.4,6.4,0,0,0,8.44,2.68l33.36-16.41a6.39,6.39,0,0,0,3.1-8.17l-11-26.72A6.42,6.42,0,0,1,72.4,455.65Z"/><path class="cls-3" d="M192.59,347.16l-.2-15a3.84,3.84,0,0,0-.79-2.31L182,317.59a3.25,3.25,0,0,0-.58-.59l-12.13-9.41c-.43-.33-1,.14-.87.7l4.47,16.64a8.6,8.6,0,0,1-.42,5.61l-2.27,5.28a3.45,3.45,0,0,1-3.13,2.18l-57.8-.42a2.45,2.45,0,0,1-1.29-.37l-11.08-6.73-3.58,27L107,354.61a2.68,2.68,0,0,1,.63-.05l65.6,2.83a3,3,0,0,1,1.33.37l5.06,2.79a3.18,3.18,0,0,0,4-.9l8-9.9A4.08,4.08,0,0,0,192.59,347.16Z"/><path class="cls-3" d="M83.1,334.11,27.19,319.44a3.44,3.44,0,0,1-2.45-2.93l-.82-5.68A8.58,8.58,0,0,1,25,305.3l8.65-14.89c.3-.51-.15-1.12-.65-.91l-14.16,5.92a3.94,3.94,0,0,0-.72.41L5.61,305.21a3.77,3.77,0,0,0-1.36,2L.16,321.62a4.06,4.06,0,0,0,.17,2.73L5.49,336a3.18,3.18,0,0,0,3.66,1.92l5.6-1.37a3.11,3.11,0,0,1,1.39,0L80.2,350.91a2.54,2.54,0,0,1,.6.22l12.51,6.36,3.58-27-12.44,3.61A2.58,2.58,0,0,1,83.1,334.11Z"/></g></g></g></svg>