<svg xmlns="http://www.w3.org/2000/svg" xmlns:xlink="http://www.w3.org/1999/xlink" viewBox="0 0 395.33 1026.34"><defs><style>.cls-1{fill:#202b33;}.cls-2{fill:url(#Degradado_sin_nombre_169);}.cls-3{fill:url(#Degradado_sin_nombre_162);}.cls-4{fill:url(#Degradado_sin_nombre_162-2);}.cls-5{fill:#2c1f2c;}</style><linearGradient id="Degradado_sin_nombre_169" y1="203.88" x2="395.33" y2="203.88" gradientUnits="userSpaceOnUse"><stop offset="0.74" stop-color="#788689"/><stop offset="0.8" stop-color="#7d8b8e"/><stop offset="0.87" stop-color="#8b999d"/><stop offset="0.94" stop-color="#a2b1b4"/><stop offset="1" stop-color="#b9c8cc"/></linearGradient><linearGradient id="Degradado_sin_nombre_162" x1="198.15" y1="203.88" x2="16.22" y2="203.88" gradientUnits="userSpaceOnUse"><stop offset="0" stop-color="#272f34"/><stop offset="0.19" stop-color="#2c3439"/><stop offset="0.42" stop-color="#394347"/><stop offset="0.67" stop-color="#505b5f"/><stop offset="0.93" stop-color="#6f7c7f"/><stop offset="1" stop-color="#788689"/></linearGradient><linearGradient id="Degradado_sin_nombre_162-2" x1="1938.05" y1="203.88" x2="1756.13" y2="203.88" gradientTransform="matrix(-1, 0, 0, 1, 2136.27, 0)" xlink:href="#Degradado_sin_nombre_162"/></defs><title>Recurso 240@4x</title><g id="Capa_2" data-name="Capa 2"><g id="Weapons"><g id="Double_Edged_Axe_A" data-name="Double Edged Axe A"><path class="cls-1" d="M235.12,985.91l-33.42,38.58a5.37,5.37,0,0,1-8.06,0L160.25,987a5.39,5.39,0,0,1-1.15-5l11.52-40.45,9.24-720.76,10.32-31.88h15l10.75,30.32,7.84,723.14,12.4,38.41A5.35,5.35,0,0,1,235.12,985.91Z"/><path class="cls-2" d="M381.85,148C365.7,88.17,296.14,21,275.41.62a2.13,2.13,0,0,0-3.54,2.12c5.06,16.91,13.16,56.64-9.24,88.85-28.63,41.16-65,15.23-65,15.23s-36.33,25.93-65-15.23c-22.41-32.21-14.3-71.94-9.25-88.85A2.13,2.13,0,0,0,119.92.62C99.18,21,29.63,88.17,13.48,148c-20.41,75.58-22.85,111.37,30,189.18C79.84,390.75,111,402.73,125,407.5a4.64,4.64,0,0,0,6-5.6c-7.29-26.51-46.64-104.71,15.23-123.27,51.48-15.44,51.4-2.27,51.4-15.71,0,13.44-.08.27,51.4,15.71,61.88,18.56,22.53,96.76,15.23,123.27a4.64,4.64,0,0,0,6,5.6c14-4.77,45.2-16.75,81.58-70.33C404.7,259.36,402.26,223.57,381.85,148Z"/><path class="cls-3" d="M198.15,106.82s-36.34,25.93-65-15.23c-22.4-32.21-14.3-71.94-9.25-88.85A2.13,2.13,0,0,0,120.4.62C99.66,21,45.85,88.17,29.7,148c-1.38,5.08,12.18,11.46,11,16.21-1.08,4.3-16.94,7-17.87,11.07q-1.59,7-2.84,13.61c-9.47,50.53-2.65,85.9,39.71,148.29,36.38,53.58,51.81,65.56,65.84,70.33a4.63,4.63,0,0,0,6-5.6c-7.29-26.51-46.64-104.71,15.23-123.27,51.49-15.44,51.41-2.27,51.41-15.71"/><path class="cls-4" d="M198.22,106.82s36.33,25.93,65-15.23c22.4-32.21,14.3-71.94,9.24-88.85A2.13,2.13,0,0,1,276,.62C296.7,21,350.52,88.17,366.67,148c1.37,5.08-12.18,11.46-11,16.21,1.08,4.3,16.94,7,17.86,11.07q1.6,7,2.85,13.61c9.47,50.53,2.64,85.9-39.71,148.29-36.38,53.58-51.81,65.56-65.84,70.33a4.64,4.64,0,0,1-6-5.6c7.29-26.51,46.64-104.71-15.23-123.27-51.48-15.44-51.4-2.27-51.4-15.71"/><path class="cls-1" d="M202.66,296.2h-10a23.58,23.58,0,0,1-23.5-23.5L178.85,96c0-12.93,2.74-23.5,15.67-23.5h6.33c12.92,0,14.33,10.57,14.33,23.5l11,176.75A23.57,23.57,0,0,1,202.66,296.2Z"/><path class="cls-5" d="M221.88,767.87c7.37-5,3.32-15.53,4.64-20.34,5.63-10.9-.12-11,1-16,9.37-9.13-.63-12.78-.47-16.49,10.58-12.56-1.74-18.11,2.13-22.54,9.53-10.92-2.43-18.7-.37-22,7.54-12,4.53-26.47,4.53-26.47-.68-4.35-4.85-6.23-7.76-7.63,0,0-11.06-2.43-27.92-1.36a51,51,0,0,0-21.48,6.8c-4.77.65-9.12,6.94-12.15,12.62,0,0-7.47,14,2.76,23.57,3.49,3.27-10.18,11.13-.84,20.86,3.16,3.29-6.15,13.24.87,21.06.26,1.84-6.64,13.59,2.33,19.2,1.26,5.37-3.31,2.25.88,16.31,1.87,6-3.91,13.09,1.76,14.83"/></g></g></g></svg>