<svg xmlns="http://www.w3.org/2000/svg" xmlns:xlink="http://www.w3.org/1999/xlink" viewBox="0 0 237.51 1211.08"><defs><style>.cls-1{fill:url(#Degradado_sin_nombre_169);}.cls-2{fill:url(#Degradado_sin_nombre_87);}.cls-3{fill:url(#Degradado_sin_nombre_169-2);}.cls-4{fill:url(#Degradado_sin_nombre_162);}.cls-5{fill:#202b33;}</style><linearGradient id="Degradado_sin_nombre_169" x1="271.94" y1="1427.68" x2="271.94" y2="1772.12" gradientTransform="matrix(1, -0.04, 0.06, 1.59, -237.1, -2262.49)" gradientUnits="userSpaceOnUse"><stop offset="0.74" stop-color="#788689"/><stop offset="0.8" stop-color="#7d8b8e"/><stop offset="0.87" stop-color="#8b999d"/><stop offset="0.94" stop-color="#a2b1b4"/><stop offset="1" stop-color="#b9c8cc"/></linearGradient><linearGradient id="Degradado_sin_nombre_87" x1="249.4" y1="1772.81" x2="271.51" y2="1431.15" gradientTransform="matrix(1, -0.04, 0.06, 1.59, -237.1, -2262.49)" gradientUnits="userSpaceOnUse"><stop offset="0" stop-color="#272f34"/><stop offset="0.09" stop-color="#343d42"/><stop offset="0.34" stop-color="#525d61"/><stop offset="0.58" stop-color="#677477"/><stop offset="0.8" stop-color="#748184"/><stop offset="1" stop-color="#788689"/></linearGradient><linearGradient id="Degradado_sin_nombre_169-2" x1="-2744.72" y1="5070.25" x2="-2744.72" y2="5414.69" gradientTransform="matrix(-1, -0.09, 0.14, -1.59, -3402.84, 9013.17)" xlink:href="#Degradado_sin_nombre_169"/><linearGradient id="Degradado_sin_nombre_162" x1="-2806.24" y1="5244.38" x2="-2717.56" y2="5244.38" gradientTransform="matrix(-1, -0.09, 0.14, -1.59, -3402.84, 9013.17)" gradientUnits="userSpaceOnUse"><stop offset="0" stop-color="#272f34"/><stop offset="0.19" stop-color="#2c3439"/><stop offset="0.42" stop-color="#394347"/><stop offset="0.67" stop-color="#505b5f"/><stop offset="0.93" stop-color="#6f7c7f"/><stop offset="1" stop-color="#788689"/></linearGradient></defs><title>Recurso 244@4x</title><g id="Capa_2" data-name="Capa 2"><g id="Weapons"><g id="Double_Edgede_Sword_A" data-name="Double Edgede Sword A"><path class="cls-1" d="M182.25,545.64s6.3-15.33,12.59-197.14c.31-8.94-10.79-19.93-18.67-28,6.58-13,18.8-21,18.25-31.82-3-59.83-13.59-110-26.93-151.25-3.3-10.2-6.39-13.2-20.56-12.63,3.14-26.7,3.21-33.49-.36-41.31A473.7,473.7,0,0,0,98.3,1.13c-2.31-3.24-5.4,1.06-4,5.62,12.49,41.9,40,154.3,39.22,328.3-.57,121.19-40.34,203.06-40.34,203.06Z"/><path class="cls-2" d="M153.22,550.65s6.72-17.09,13-198.89c.3-8.94-10.69-23.15-18.57-31.2,6.59-13.05,18.7-23,18.16-33.84-3-59.83-4.08-93.09-17.42-134.29-3.3-10.21-9.62-17.63-23.79-17.06,3.15-26.7,2.77-44.24-.8-52.06C105.19,42.57,107.33,18.66,96.93,4.1c-2.31-3.23-4-1.91-2.67,2.65,12.49,41.9,31.95,153.51,31.13,327.51-.57,121.19-38.16,202.62-38.16,202.62Z"/><path class="cls-3" d="M54.5,659s-8.22,14.39-37.73,193.9C15.32,861.68,24.92,874,31.71,883c-8.21,12.1-21.33,18.39-22.18,29.23-4.68,59.72-.61,110.87,7.34,153.45,2,10.54,4.66,13.91,18.78,15.15-6.54,26.08-7.47,32.81-4.93,41a473.34,473.34,0,0,0,37.33,87.89c1.87,3.5,5.48-.36,4.72-5.06-7-43.16-20-158.16,3.13-330.63,16.08-120.11,66-196.22,66-196.22Z"/><path class="cls-4" d="M83.93,657.7s-8.85,16.08-38.36,195.59C44.12,862.11,53.2,877.61,60,886.6c-8.2,12.11-21.48,20.4-22.33,31.24-4.68,59.72-7.88,92.85.08,135.42,2,10.54,7.28,18.72,21.41,20-6.54,26.08-8.42,43.52-5.88,51.73,13.26,42.8,8.07,66.23,16.53,82,1.87,3.5,3.74,2.41,3-2.29-7-43.16-12-156.33,11-328.8C99.9,755.75,147.61,679.8,147.61,679.8Z"/><path class="cls-5" d="M114.91,673.75s9.14-11.77,11.77-16c8.52-8.83,1-12.86,3.54-17.35,11.6-6.08,5.68-11.59,6.88-15.09,13.73-9,3.5-17.85,8.48-21,12.25-7.75,6.8-17.49,9.71-20,10.65-9.34,11.89-24.07,11.89-24.07a6.63,6.63,0,0,0-5.25-9.53l-21.27-2.23-31.94-5a8.15,8.15,0,0,0-9.38,7.6s-8.4,11.91-1.33,24c2.42,4.14-12.93,7.77-6.76,19.76,2.09,4-9.67,10.93-5.17,20.43-.28,1.84-10.25,11.13-3.25,19.07-.32,5.5-5.25,0-5.25,14.68.07,6.3,0,16.25,0,16.25"/><path class="cls-5" d="M237.51,552.64l-.19-15a3.84,3.84,0,0,0-.79-2.31l-9.61-12.31a3.59,3.59,0,0,0-.59-.58l-12.13-9.41c-.43-.33-1,.14-.86.7l4.46,16.64a8.6,8.6,0,0,1-.41,5.61l-2.28,5.28a3.43,3.43,0,0,1-3.13,2.18l-57.8-.42a2.47,2.47,0,0,1-1.29-.37L141.82,536l-3.59,27L152,560.09a2.24,2.24,0,0,1,.63-.05l65.59,2.82a3,3,0,0,1,1.34.38l5.05,2.79a3.18,3.18,0,0,0,4-.9l8-9.9A4,4,0,0,0,237.51,552.64Z"/><path class="cls-5" d="M128,539.59,72.12,524.92A3.44,3.44,0,0,1,69.66,522l-.82-5.68a8.65,8.65,0,0,1,1.07-5.53l8.65-14.89c.29-.51-.15-1.12-.66-.91L63.74,500.9a4.3,4.3,0,0,0-.72.41l-12.48,9.38a3.79,3.79,0,0,0-1.37,2L45.08,527.1a4.06,4.06,0,0,0,.18,2.73l5.16,11.65a3.17,3.17,0,0,0,3.65,1.92L59.68,542a3.11,3.11,0,0,1,1.39,0l64.06,14.38a3.19,3.19,0,0,1,.59.21L138.23,563l3.59-27-12.45,3.61A2.54,2.54,0,0,1,128,539.59Z"/><path class="cls-5" d="M1.91,648.72,0,663.56A3.86,3.86,0,0,0,.49,666l7.82,13.52a3.58,3.58,0,0,0,.5.66l10.71,11a.58.58,0,0,0,.95-.57l-2.12-17.09A8.67,8.67,0,0,1,19.54,668l3-4.91a3.48,3.48,0,0,1,3.41-1.73l57.18,8.42a2.59,2.59,0,0,1,1.23.55l10,8.2,7.28-26.26-14,.95a2.22,2.22,0,0,1-.63,0L22.46,641.27a3.15,3.15,0,0,1-1.27-.56l-4.62-3.46a3.19,3.19,0,0,0-4.12.33l-9.31,8.7A4.06,4.06,0,0,0,1.91,648.72Z"/><path class="cls-5" d="M108.54,676.8l53.34,22.26a3.48,3.48,0,0,1,2,3.24l0,5.75a8.76,8.76,0,0,1-1.82,5.33l-10.63,13.55a.58.58,0,0,0,.52,1l14.84-3.9a2.7,2.7,0,0,0,.77-.31l13.67-7.55a3.77,3.77,0,0,0,1.63-1.82l6-13.68a4,4,0,0,0,.21-2.73l-3.5-12.25a3.18,3.18,0,0,0-3.35-2.41l-5.75.59a3.23,3.23,0,0,1-1.38-.18l-61.45-23.11a2.71,2.71,0,0,1-.56-.29l-11.51-8-7.28,26.26,12.82-1.86A2.65,2.65,0,0,1,108.54,676.8Z"/></g></g></g></svg>