<svg xmlns="http://www.w3.org/2000/svg" xmlns:xlink="http://www.w3.org/1999/xlink" viewBox="0 0 358 534.04"><defs><style>.cls-1{fill:url(#Degradado_sin_nombre_2);}.cls-2{fill:url(#Degradado_sin_nombre_12);}.cls-3{fill:#202b33;}</style><linearGradient id="Degradado_sin_nombre_2" y1="96" x2="358" y2="96" gradientUnits="userSpaceOnUse"><stop offset="0.02" stop-color="#788689"/><stop offset="0.74" stop-color="#788689"/><stop offset="0.8" stop-color="#7d8b8e"/><stop offset="0.87" stop-color="#8b999d"/><stop offset="0.94" stop-color="#a2b1b4"/><stop offset="1" stop-color="#b9c8cc"/></linearGradient><linearGradient id="Degradado_sin_nombre_12" x1="179" y1="180.15" x2="179" y2="35.81" gradientUnits="userSpaceOnUse"><stop offset="0" stop-color="#272f34"/><stop offset="0.26" stop-color="#2f373c" stop-opacity="0.9"/><stop offset="0.57" stop-color="#455054" stop-opacity="0.62"/><stop offset="0.9" stop-color="#6b787b" stop-opacity="0.16"/><stop offset="1" stop-color="#788689" stop-opacity="0"/></linearGradient></defs><title>Recurso 245@4x</title><g id="Capa_2" data-name="Capa 2"><g id="Weapons"><g id="Hammer_A" data-name="Hammer A"><path class="cls-1" d="M321.12,12.16l-140,43.51a7.22,7.22,0,0,1-4.22,0l-140-43.51A7.09,7.09,0,0,0,30,13.69L2.33,38.82A7.11,7.11,0,0,0,0,44.08V147.91a7.11,7.11,0,0,0,2.33,5.26L30,178.3a7.09,7.09,0,0,0,6.89,1.53l140-43.51a7.22,7.22,0,0,1,4.22,0l140,43.51A7.09,7.09,0,0,0,328,178.3l27.66-25.13a7.11,7.11,0,0,0,2.33-5.26V44.08a7.11,7.11,0,0,0-2.33-5.26L328,13.69A7.09,7.09,0,0,0,321.12,12.16Z"/><path class="cls-2" d="M321.12,36.09l-140,37.31a8.16,8.16,0,0,1-4.22,0l-140-37.31A8,8,0,0,0,30,37.4L2.33,59A5.74,5.74,0,0,0,0,63.46v89A5.77,5.77,0,0,0,2.33,157L30,178.57a8,8,0,0,0,6.89,1.31l140-37.31a8.16,8.16,0,0,1,4.22,0l140,37.31a8,8,0,0,0,6.89-1.31L355.67,157A5.77,5.77,0,0,0,358,152.5v-89A5.74,5.74,0,0,0,355.67,59L328,37.4A8,8,0,0,0,321.12,36.09Z"/><path class="cls-3" d="M208.59,493.55l-26.4,38.58c-1.74,2.54-4.61,2.55-6.38,0l-26.36-37.53a6.49,6.49,0,0,1-.91-5l9.1-40.45,7.3-417.28L178.13.67a1.09,1.09,0,0,1,1-.67h0a1.09,1.09,0,0,1,1,.65l13.29,29.67L199.62,450l9.79,38.41A6.46,6.46,0,0,1,208.59,493.55Z"/><path class="cls-3" d="M173.51,43.81h11c14.2,0,25.81,9.6,25.81,21.33,0,0-2.84,74-5.2,98.54-.44,4.61-4.83,13.61-4.66,18.33.13,3.64,4,10.47,4,14-.1,7.47-5.49,24.34-5.49,24.34,0,11.72,5.16,26.5-9,26.5H167.35c-14.19,0-8.3-14.78-8.3-26.5,0,0-4.14-17.61-4.28-25.34-.06-3.37,3.38-11,3.33-14.86,0-4.26-3.85-12-4.33-16.47-2.59-24.55-6.07-98.54-6.07-98.54C147.7,53.41,159.31,43.81,173.51,43.81Z"/></g></g></g></svg>