<svg xmlns="http://www.w3.org/2000/svg" xmlns:xlink="http://www.w3.org/1999/xlink" viewBox="0 0 241.94 1055.72"><defs><style>.cls-1{fill:#272f34;}.cls-2{fill:url(#Degradado_sin_nombre_158);}</style><linearGradient id="Degradado_sin_nombre_158" x1="120.97" y1="321.55" x2="120.97" gradientUnits="userSpaceOnUse"><stop offset="0" stop-color="#272f34"/><stop offset="0.08" stop-color="#2c3439"/><stop offset="0.18" stop-color="#394347"/><stop offset="0.29" stop-color="#505b5f"/><stop offset="0.4" stop-color="#6f7c7f"/><stop offset="0.43" stop-color="#788689"/><stop offset="0.51" stop-color="#6d7a7d"/><stop offset="0.64" stop-color="#4e595d"/><stop offset="0.79" stop-color="#272f34"/></linearGradient></defs><title>Recurso 250@4x</title><g id="Capa_2" data-name="Capa 2"><g id="Weapons"><g id="Pitchfork_A" data-name="Pitchfork A"><path class="cls-1" d="M158.42,1015.29,125,1053.87a5.37,5.37,0,0,1-8.06.05l-33.38-37.54a5.36,5.36,0,0,1-1.15-5L93.92,970.9l9.24-631.52L88.27,307.49h66.64l-15.68,30.32,7.84,633.91,12.4,38.41A5.35,5.35,0,0,1,158.42,1015.29Z"/><path class="cls-2" d="M211.49,1.16A2.46,2.46,0,0,0,207,2.84c2.84,18.4,7.93,57.63,6.7,96.23-1.28,40.17-6.05,75-19.05,113-16.95,49.56-37.2,49.59-43.5,22-5.62-24.62-21.59-163.13-27.72-217.28a2.46,2.46,0,0,0-4.88,0C112.39,70.94,96.42,209.45,90.8,234.07c-6.3,27.59-26.54,27.56-43.5-22-13-38-17.76-72.83-19-113C27,60.47,32.12,21.24,35,2.84a2.46,2.46,0,0,0-4.51-1.68C16,24.3-16.26,134.53,9.93,238.07c33,130.5,111,69,111,69s78,61.5,111-69C258.19,134.53,225.93,24.3,211.49,1.16Z"/></g></g></g></svg>