<svg xmlns="http://www.w3.org/2000/svg" xmlns:xlink="http://www.w3.org/1999/xlink" viewBox="0 0 192.59 710.66"><defs><style>.cls-1{fill:url(#Degradado_sin_nombre_169);}.cls-2{fill:url(#Degradado_sin_nombre_162);}.cls-3{fill:#202b33;}</style><linearGradient id="Degradado_sin_nombre_169" x1="172.91" y1="978.24" x2="172.91" y2="1322.68" gradientTransform="matrix(1, -0.04, 0.06, 1.59, -154.01, -1551.18)" gradientUnits="userSpaceOnUse"><stop offset="0.74" stop-color="#788689"/><stop offset="0.8" stop-color="#7d8b8e"/><stop offset="0.87" stop-color="#8b999d"/><stop offset="0.94" stop-color="#a2b1b4"/><stop offset="1" stop-color="#b9c8cc"/></linearGradient><linearGradient id="Degradado_sin_nombre_162" x1="111.39" y1="1152.36" x2="200.07" y2="1152.36" gradientTransform="matrix(1, -0.04, 0.06, 1.59, -154.01, -1551.18)" gradientUnits="userSpaceOnUse"><stop offset="0" stop-color="#272f34"/><stop offset="0.19" stop-color="#2c3439"/><stop offset="0.42" stop-color="#394347"/><stop offset="0.67" stop-color="#505b5f"/><stop offset="0.93" stop-color="#6f7c7f"/><stop offset="1" stop-color="#788689"/></linearGradient></defs><title>Recurso 229@4x</title><g id="Capa_2" data-name="Capa 2"><g id="Weapons"><g id="Saber_A" data-name="Saber A"><path class="cls-1" d="M137.32,545.64s6.31-15.33,12.6-197.14c.31-8.94-10.8-19.93-18.68-28,6.59-13,18.8-21,18.26-31.82-3-59.83-13.59-110-26.93-151.25-3.3-10.2-6.4-13.2-20.57-12.63,3.15-26.7,3.21-33.49-.36-41.31A473,473,0,0,0,53.37,1.13c-2.31-3.24-5.39,1.06-4,5.62,12.49,41.9,40,154.3,39.22,328.3C88,456.24,48.22,538.11,48.22,538.11Z"/><path class="cls-2" d="M108.29,550.65s6.72-17.09,13-198.89c.31-8.94-10.68-23.15-18.56-31.2,6.59-13.05,18.7-23,18.15-33.84-3-59.83-4.08-93.09-17.41-134.29-3.31-10.21-9.63-17.63-23.8-17.06,3.15-26.7,2.78-44.24-.79-52.06C60.27,42.57,62.4,18.66,52,4.1,49.69.87,48,2.19,49.34,6.75c12.49,41.9,32,153.51,31.13,327.51C79.9,455.45,42.3,536.88,42.3,536.88Z"/><path class="cls-3" d="M74.13,653.44s14.61-22.14,18.28-32.82c8.53-6.37,3.31-16,8.53-18.7,7.84-4.09,6.52-15.1,9.43-17.66,10.64-9.34,11.89-24.07,11.89-24.07a6.63,6.63,0,0,0-5.25-9.53l-21.28-2.23-31.94-5a8.14,8.14,0,0,0-9.37,7.6S46,563,53.08,575.06c2.42,4.14-6.4,11.86-1.06,19.14,2.7,3.67-6.17,13-1,18.2-1.63,10.62-.65,35.23-.65,35.23a6.44,6.44,0,0,1-3.11,5.15L24.61,666.29a6.4,6.4,0,0,0-2.34,8.56L40,707.33A6.41,6.41,0,0,0,48.45,710l33.37-16.4a6.4,6.4,0,0,0,3.09-8.18L74,658.71A6.38,6.38,0,0,1,74.13,653.44Z"/><path class="cls-3" d="M192.59,552.64l-.2-15a3.84,3.84,0,0,0-.79-2.31L182,523.06a3.54,3.54,0,0,0-.58-.58l-12.13-9.41c-.43-.33-1,.14-.87.7l4.47,16.64a8.6,8.6,0,0,1-.42,5.61l-2.27,5.28a3.45,3.45,0,0,1-3.13,2.18l-57.8-.42a2.45,2.45,0,0,1-1.29-.37L96.89,536l-3.58,27L107,560.09a2.24,2.24,0,0,1,.63-.05l65.6,2.82a3,3,0,0,1,1.33.38l5.06,2.79a3.18,3.18,0,0,0,4-.9l8-9.9A4.08,4.08,0,0,0,192.59,552.64Z"/><path class="cls-3" d="M83.1,539.59,27.19,524.92A3.44,3.44,0,0,1,24.74,522l-.82-5.68A8.58,8.58,0,0,1,25,510.78l8.65-14.89c.3-.51-.15-1.12-.65-.91L18.82,500.9a3.94,3.94,0,0,0-.72.41L5.61,510.69a3.77,3.77,0,0,0-1.36,2L.16,527.1a4.06,4.06,0,0,0,.17,2.73l5.16,11.65a3.18,3.18,0,0,0,3.66,1.92l5.6-1.37a3.11,3.11,0,0,1,1.39,0L80.2,556.39a3,3,0,0,1,.6.21L93.31,563l3.58-27-12.44,3.61A2.58,2.58,0,0,1,83.1,539.59Z"/></g></g></g></svg>