<svg xmlns="http://www.w3.org/2000/svg" xmlns:xlink="http://www.w3.org/1999/xlink" viewBox="0 0 356.38 1113.63"><defs><style>.cls-1{fill:url(#Degradado_sin_nombre_169);}.cls-2{fill:url(#Degradado_sin_nombre_162);}.cls-3{fill:#202b33;}</style><linearGradient id="Degradado_sin_nombre_169" x1="114.44" y1="404.81" x2="241.94" y2="404.81" gradientUnits="userSpaceOnUse"><stop offset="0.74" stop-color="#788689"/><stop offset="0.8" stop-color="#7d8b8e"/><stop offset="0.87" stop-color="#8b999d"/><stop offset="0.94" stop-color="#a2b1b4"/><stop offset="1" stop-color="#b9c8cc"/></linearGradient><linearGradient id="Degradado_sin_nombre_162" x1="121.66" y1="412.11" x2="178.19" y2="412.11" gradientUnits="userSpaceOnUse"><stop offset="0" stop-color="#272f34"/><stop offset="0.19" stop-color="#2c3439"/><stop offset="0.42" stop-color="#394347"/><stop offset="0.67" stop-color="#505b5f"/><stop offset="0.93" stop-color="#6f7c7f"/><stop offset="1" stop-color="#788689"/></linearGradient></defs><title>Recurso 236@4x</title><g id="Capa_2" data-name="Capa 2"><g id="Weapons"><g id="Sword_A" data-name="Sword A"><polygon class="cls-1" points="178.19 0 114.44 119.99 135.76 809.62 178.19 809.62 220.62 809.62 241.94 119.99 178.19 0"/><polyline class="cls-2" points="178.19 809.62 135.76 809.62 121.67 121 178.19 14.6"/><path class="cls-3" d="M219.31,1073.21l-33.42,38.57c-2.12,2.45-13.23,2.48-15.39.06l-33.38-37.54a5.36,5.36,0,0,1-1.15-5l11.51-40.46,9.25-178.63-14.9-31.89h74l-15.68,30.32,7.84,181,12.4,38.42A5.35,5.35,0,0,1,219.31,1073.21Z"/><path class="cls-3" d="M325.92,783.14,355,808.32c1.84,1.6,1.86,10,0,11.59l-28.28,25.16a4,4,0,0,1-3.79.86l-30.48-8.67-90.27-7-24,11.23V785.79L201,797.6l92.07-5.9L322,782.35A4,4,0,0,1,325.92,783.14Z"/><path class="cls-3" d="M30.46,844.1,1.39,818.92c-1.84-1.6-1.86-10,0-11.59l28.29-25.16a4,4,0,0,1,3.79-.86L63.9,790l90.27,7,24-11.23v55.73l-22.84-11.81-92.06,5.9-28.95,9.35A4.05,4.05,0,0,1,30.46,844.1Z"/></g></g></g></svg>